/* XPM */
static char * DocumentY_xpm[] = {
"39 39 16 1",
" 	c #FFFFFFFFFFFF",
".	c #30301212AAAA",
"X	c #0000FFFFFFFF",
"o	c #52527878BFBF",
"O	c #FFFF0000FFFF",
"+	c #D3D3D3D3D3D3",
"@	c #B7B728282828",
"#	c #FFFF00000000",
"$	c #000000000000",
"%	c #5C5C5C5C5C5C",
"&	c #85859797FFFF",
"*	c #4A4ABDBD4040",
"=	c #878787878787",
"-	c #FFFFE7E77979",
";	c #FFFF6F6F6C6C",
":	c #00000000FFFF",
"                                       ",
"                                       ",
"                                       ",
"                                       ",
"   ..X.X... .X...X...X...oX...         ",
"                                       ",
"                                       ",
"      O.O.O.O.O. O.O.O.O. O.O. .O.     ",
"                                       ",
"      .O.O.O.O.O.O. .O.O. .O.O .O.     ",
"                                       ",
"      .O. .O.O.O+.O.O .O.  .O.O+.O+    ",
"                                       ",
"      ...O+..@ ..  ...O...O.. ..O.     ",
"                      +   +            ",
"      ..@.. ....@ ..         ..@..     ",
"                                       ",
"      ..@...@.. ..   #######    ..     ",
"                    #########          ",
"                    #  ###  #          ",
"                       ###             ",
"                       ###             ",
"                    #########          ",
"      .o...$...$.  ###########         ",
"      ...%.o.%.%.  #   ###   #         ",
"      oo$o%oooooo      ###             ",
"      &oo$%oooo.o      ### #####       ",
"      %o%oooooo*o      ##########      ",
"      ======o*=%%      ####    ###     ",
"      =o=o=====o=      ###      ##     ",
"      %%=%%==%===      ###      ##     ",
"      %=%%@=@-;;;      ###      ##     ",
"                       ####    ###     ",
"                     ############      ",
"      $$$$$ $$$$$    ###########       ",
"                                       ",
"      $$$:$$$$$ $$$$:$$$$:$::$::$$     ",
"                                       ",
"                                       "};
