/* XPM */
static char *kbeng[] = {
/* width height num_colors chars_per_pixel */
"    48    48      246            2",
/* colors */
".. c #00fe00",
".# c #0007a5",
".a c #000351",
".b c #ee0000",
".c c #e00000",
".d c #c70000",
".e c #ae0000",
".f c #c00000",
".g c #d90000",
".h c #e70000",
".i c #b50000",
".j c #ce0000",
".k c #f90000",
".l c #bc0000",
".m c #d50000",
".n c #ab0000",
".o c #f50000",
".p c #d20000",
".q c #b90000",
".r c #eb0000",
".s c #dc0000",
".t c #c30000",
".u c #b20000",
".v c #cb0000",
".w c #e40000",
".x c #f20000",
".y c #f5f5f5",
".z c #b5b5b5",
".A c #eeeeee",
".B c #d5d5d5",
".C c #ababab",
".D c #e0e0e0",
".E c #c7c7c7",
".F c #e7e7e7",
".G c #cecece",
".H c #c3c3c3",
".I c #c0c0c0",
".J c #cbcbcb",
".K c #e4e4e4",
".L c #aeaeae",
".M c #d9d9d9",
".N c #f2f2f2",
".O c #b9b9b9",
".P c #f9f9f9",
".Q c #dcdcdc",
".R c #bcbcbc",
".S c #ebebeb",
".T c #d2d2d2",
".U c #b2b2b2",
".V c #a80000",
".W c #9e0000",
".X c #900000",
".Y c #970000",
".Z c #a50000",
".0 c #086841",
".1 c #0a0f85",
".2 c #8d0000",
".3 c #a70000",
".4 c #620000",
".5 c #000578",
".6 c #111784",
".7 c #9b0000",
".8 c #141a9c",
".9 c #940000",
"#. c #a20000",
"## c #050a78",
"#a c #05b023",
"#b c #603119",
"#c c #0d1397",
"#d c #26b711",
"#e c #7c0000",
"#f c #2b3090",
"#g c #a8a8a7",
"#h c #830000",
"#i c #f32525",
"#j c #a5a5a5",
"#k c #ac3e3e",
"#l c #0d105b",
"#m c #b12d2d",
"#n c #9e9e9e",
"#o c #d72020",
"#p c #909090",
"#q c #979797",
"#r c #16b715",
"#s c #080e98",
"#t c #41372b",
"#u c #01ac22",
"#v c #030aa2",
"#w c #030a97",
"#x c #f38383",
"#y c #f35d5d",
"#z c #cda5a5",
"#A c #373b8d",
"#B c #9b9b9b",
"#C c #949494",
"#D c #e52323",
"#E c #a2a2a2",
"#F c #b33636",
"#G c #0d116d",
"#H c #c53c3c",
"#I c #a7a7a7",
"#J c #8a2c2c",
"#K c #933838",
"#L c #2cd62c",
"#M c #8d8d8d",
"#N c #0007a1",
"#O c #640000",
"#P c #000355",
"#Q c #6c392a",
"#R c #702424",
"#S c #790000",
"#T c #1ec71e",
"#U c #121799",
"#V c #030659",
"#W c #1ac41d",
"#X c #25cf25",
"#Y c #515151",
"#Z c #151862",
"#0 c #b56161",
"#1 c #c34b4b",
"#2 c #ae8686",
"#3 c #ee4949",
"#4 c #05e70b",
"#5 c #bf1c1c",
"#6 c #d8c8c8",
"#7 c #b88e8e",
"#8 c #e04444",
"#9 c #c76b6b",
"a. c #b14444",
"a# c #e07878",
"aa c #e05656",
"ab c #e7b2b2",
"ac c #720000",
"ad c #6a0000",
"ae c #d5adad",
"af c #ab1919",
"ag c #510000",
"ah c #26c71d",
"ai c #0cc612",
"aj c #e7d5d5",
"ak c #d14040",
"al c #670000",
"am c #191c64",
"an c #b51b1b",
"ao c #cabbbb",
"ap c #6e0000",
"aq c #750000",
"ar c #f1baba",
"as c #12178f",
"at c #12dd11",
"au c #2aa800",
"av c #484949",
"aw c #580000",
"ax c #082967",
"ay c #247a4c",
"az c #934f4f",
"aA c #444790",
"aB c #479f44",
"aC c #1d228d",
"aD c #716e77",
"aE c #20269c",
"aF c #2d494f",
"aG c #575785",
"aH c #1a714d",
"aI c #0c1180",
"aJ c #9e7979",
"aK c #080c6d",
"aL c #00068a",
"aM c #0b0e5a",
"aN c #333670",
"aO c #08ce19",
"aP c #101694",
"aQ c #28d127",
"aR c #2e3398",
"aS c #0a0e65",
"aT c #000697",
"aU c #0a0e70",
"aV c #9b8585",
"aW c #0c128b",
"aX c #366e26",
"aY c #5e6094",
"aZ c #3d468c",
"a0 c #24299c",
"a1 c #876f6f",
"a2 c #2a2260",
"a3 c #4ca64c",
"a4 c #4d508b",
"a5 c #a45757",
"a6 c #3a8437",
"a7 c #053a4f",
"a8 c #050b90",
"a9 c #05096a",
"b. c #151b92",
"b# c #010566",
"ba c #181e9f",
"bb c #0e7b41",
"bc c #6a5f5f",
"bd c #282c95",
"be c #1b209f",
"bf c #686a99",
"bg c #13a125",
"bh c #202592",
"bi c #045c4b",
"bj c #035349",
"bk c #232674",
"bl c #0b9233",
"bm c #6c6c6c",
"bn c #191e8a",
"bo c #282b76",
"bp c #6e4e4e",
"bq c #05783e",
"br c #0c207c",
"bs c #000464",
"bt c #151a74",
"bu c #040867",
"bv c #030a92",
"bw c #f7e4e4",
"bx c #beafaf",
"by c #f0dddd",
"bz c #890000",
"bA c #01089e",
"bB c #e95959",
"bC c #e97d7d",
"bD c #d35151",
"bE c #ba4747",
"bF c #d07070",
"bG c #c19595",
"bH c #c91e1e",
"bI c #0cee0c",
"bJ c #cc9d9d",
"bK c #f74b4b",
"bL c #d77373",
"bM c #be6666",
"bN c #1da800",
"bO c #5c0000",
"bP c #44466e",
"bQ c #9e9191",
"bR c #a69999",
"bS c #641e1e",
"bT c #12166e",
"bU c #817b7b",
"bV c #b9abab",
"bW c #d2c2c2",
"bX c #b2a4a4",
"bY c #1e3d5c",
"bZ c #060c89",
/* pixels */
".a#P#V#Vbsbsb#b#a9.5.5.5.5aLaLaLaLbvaTaTbAbA#N.#.V.n.e.u.i.q.l.f.t.d.v.j.p.m.g.s.c.w.h.r.b.x.o.k",
".a#V#laMbsaS#Za9a9aO..ax.5.6.6aLa8aCaPaT#caE#v.#.V.n.e.u.i.q.l.f.t.d.v.j.p.m.g.s.c.w.h.r.b.x.o.k",
".aa7#W#a#ubgbP#GaK....aO#u#WaBaWasaY#A#waRbfa0.#.V.n.e.u.i.q.l.f.t.d.v.j.p.m.g.s.c.w.h.r.b.x.o.k",
".a#u.........0aKaK............braW#fb.#s.8aR#U.##F#F#F#F#F#F#F#H#H#H#Hakakak#8#8#8#8#8#3#3#3bKbK",
".aa7......#4axbkbo....aO#a....ay#fa8b.aAbebA#N.##g.C.L.U.z.O.R.I.H.E.J.G.T.B.M.Q.D.K.F.S.A.N.y.P",
".abq....ay#ZbuaNbP....aybP#a..aOaZa8bhaYa0bA#N.##g.C.L.U.z.O.R.I.H.E.J.G.T.B.M.Q.D.K.F.S.A.N.y.P",
".aai..#uaSaSaSaK#G....biaIbi....aWasaP#U#c.8#v.##g.C.L.U.z.O.R.I.H.E.J.G.T.B.M.Q.D.K.F.S.A.N.y.P",
".a.....0bsa2bP#GaK....bi##ay....asaY#A#waRbfaE.##k#ka.a.a.bEbE#1#1#1#1bDbDbDbDaaaaaabBbB#y#y#y#y",
".a.....0bs#Za2aKaKaO..ax##aH....aW#Abh#wbeaA.8.#.V.n.e.u.i.q.l.f.t.d.v.j.p.m.g.s.c.w.h.r.b.x.o.k",
".a....bqa2aSbuambkaU##btbobq..#4bha8aPaRba#s#N.#.V.n.e.u.i.q.l.f.t.d.v.j.p.m.g.s.c.w.h.r.b.x.o.k",
".a#u..aObP#ZbuaNbPaU##aNaGaO..#TaAa8bhbfaRbA#N.#.V.n.e.u.i.q.l.f.t.d.v.j.p.m.g.s.c.w.h.r.b.x.o.k",
".aa7....#aaSaS#GbTaUaUaIbi....bYasasaPb.#U.8#v.#bRbRbXbXbXbVbxbxbxaoaoaobW#6#6#6ajajajajbybybwbw",
".a#lbg....#4bgbibiayayaO....aObZasa4aR#wa0aYbe.##g.C.L.U.z.O.R.I.H.E.J.G.T.B.M.Q.D.K.F.S.A.N.y.P",
".aaMa2bq..................aObPbZaWaAbd#waEa4ba.##g.C.L.U.z.O.R.I.H.E.J.G.T.B.M.Q.D.K.F.S.A.N.y.P",
".a#P#V#lbYbl#4........#abbaI.1aCbnaWaPbd.8#c#v.##2#2#2#2#7#7#7bGbGbJbJbJ#z#zaeaeababababarararar",
".a#P#VambP#ZbuaNbPaU##aNaGaI.1aGaAa8bhbfaRbA#N.#.V.n.e.u.i.q.l.f.t.d.v.j.p.m.g.s.c.w.h.r.b.x.o.k",
".abq..bqamaSaSbTbtaU##btbkaI.1aCbnaWaPbd.8#c#v.#.V.n.e.u.i.q.l.f.t.d.v.j.p.m.g.s.c.w.h.r.b.x.o.k",
".a#u..aObj.0aybibiaHaHbibiayayaxaWaAbd#waEa4ba.#.V.n.e.u.i.q.l.f.t.d.v.j.p.m.g.s.c.w.h.r.b.x.o.k",
".a#u..........................#aasa4aR#wa0aYbe.#a5a5#0#0#0#0bMbM#9#9#9bFbFbLbLa#a#bCbCbC#x#x#x#x",
".a#u..........................blasasaPb.#U.8#v.##g.C.L.U.z.O.R.I.H.E.J.G.T.B.M.Q.D.K.F.S.A.N.y.P",
".a#u..#abP#ZbuaNbPaU#u......bqa4aAa8bhbfaRbA#N.##g.C.L.U.z.O.R.I.H.E.J.G.T.B.M.Q.D.K.F.S.A.N.y.P",
".a#u..#ua2aSbuambY#4....#4ax.1#fbha8aPaRba#s#N.##g.C.L.U.z.O.R.I.H.E.J.G.T.B.M.Q.D.K.F.S.A.N.y.P",
".aa7#abjbs#Za2bq......#u##bo#fbZaW#Abh#wbeaA.8.#afafafananan#5#5#5bHbHbH#o#o#o#o#D#D#D#D#i#i#i#i",
".a#laFambsbY#W....#4ay####aZa4.1asaY#A#waRbfaE.#.V.n.e.u.i.q.l.f.t.d.v.j.p.m.g.s.c.w.h.r.b.x.o.k",
".a#VaM#Va7#4....aOaxaU.5.5bq..bqa8as#saT#s.8#v.#.V.n.e.u.i.q.l.f.t.d.v.j.p.m.g.s.c.w.h.r.b.x.o.k",
"aMaM#lbl......blbTbTbtbt.6#a..#ab.b.b.b.babababaafafafananan#5#5#5bHbHbH#o#o#o#o#D#D#D#D#i#i#i#i",
"#Y#Yat......ahaBaBa3a3a3a3at..#L#M#p#C#q#B#n#E#j#I.C.L.U.z.O.R.I.H.E.J.G.T.B.M.Q.D.K.F.S.A.N.y.P",
"#Y#W..........................#L#M#p#C#q#B#n#E#j#I.C.L.U.z.O.R.I.H.E.J.G.T.B.M.Q.D.K.F.S.A.N.y.P",
"#Y#T..........................#L#M#p#C#q#B#n#E#j#I.C.L.U.z.O.R.I.H.E.J.G.T.B.M.Q.D.K.F.S.A.N.y.P",
"#t#r..#d#Q#Q#Q#Q#Q#Qbpbpbpah..ahazazazazaza5a5a5a5a5#0#0#0#0bMbM#9#9#9bFbFbLbLa#a#bCbCbC#x#x#x#x",
"agaX..aX.4.4aladapacaq#S#e#bau#b.2.X.9.Y.7.W#..Z.3.n.e.u.i.q.l.f.t.d.v.j.p.m.g.s.c.w.h.r.b.x.o.k",
"agawawbO.4#Oaladapacaq#S#e#h#hbz.2.X.9.Y.7.W#..Z.3.n.e.u.i.q.l.f.t.d.v.j.p.m.g.s.c.w.h.r.b.x.o.k",
"agawawbO.4#Oaladapacaq#S#e#h#hbz.2.X.9.Y.7.W#..Z.3.n.e.u.i.q.l.f.t.d.v.j.p.m.g.s.c.w.h.r.b.x.o.k",
"avaXa6a6a6a6bpbpbpbcaB........#Xa1a1a1aJaJaJaJaJ#2#2#2#2#7#7#7bGbGbJbJbJ#z#zaeaeababababarararar",
"#Y#W........#TbmbmaD#X........#L#M#p#C#q#B#n#E#j#I.C.L.U.z.O.R.I.H.E.J.G.T.B.M.Q.D.K.F.S.A.N.y.P",
"#Y#T........aBbmbmaDaDa3a3at..#L#M#p#C#q#B#n#E#j#I.C.L.U.z.O.R.I.H.E.J.G.T.B.M.Q.D.K.F.S.A.N.y.P",
"#Y#W..#TbcbcbcbcbmbmbmaDa1aQ..aQbUaVaVaVbQbQbQbRbRbRbXbXbXbVbxbxbxaoaoaobW#6#6#6ajajajajbybybwbw",
"agbN..bN.4#b#4......#4#b#eau..au.2.X.9.Y.7.W#..Z.3.n.e.u.i.q.l.f.t.d.v.j.p.m.g.s.c.w.h.r.b.x.o.k",
"agbN..bN.4aX..........#b#eau..au.2.X.9.Y.7.W#..Z.3.n.e.u.i.q.l.f.t.d.v.j.p.m.g.s.c.w.h.r.b.x.o.k",
"agbN..bN.4#O#bai..ai#b#S#eau..au.2.X.9.Y.7.W#..Z.3.n.e.u.i.q.l.f.t.d.v.j.p.m.g.s.c.w.h.r.b.x.o.k",
"bS#r..#dbSbS#R#d..#d#R#R#J#d..#d#K#K#K#K#K#K#k#k#k#ka.a.a.bEbE#1#1#1#1bDbDbDbDaaaaaabBbB#y#y#y#y",
"#Y#W..bI#T#T#TbI..bI#XaQaQbI..#L#M#p#C#q#B#n#E#j#I.C.L.U.z.O.R.I.H.E.J.G.T.B.M.Q.D.K.F.S.A.N.y.P",
"#Y#W..........................#L#M#p#C#q#B#n#E#j#I.C.L.U.z.O.R.I.H.E.J.G.T.B.M.Q.D.K.F.S.A.N.y.P",
"#Y#W..bI#T#T#T#X#X#X#XaQaQbI..#L#M#p#C#q#B#n#E#j#I.C.L.U.z.O.R.I.H.E.J.G.T.B.M.Q.D.K.F.S.A.N.y.P",
"bSbN..#dbSbSbSbS#R#R#R#R#R#d..#d#J#J#J#J#K#K#m#m#F#F#F#F#F#F#F#H#H#H#Hakakak#8#8#8#8#8#3#3#3bKbK",
"ag#bbN#b.4#Oaladapacaq#S#e#bau#b.2.X.9.Y.7.W#..Z.3.n.e.u.i.q.l.f.t.d.v.j.p.m.g.s.c.w.h.r.b.x.o.k",
"agawawbO.4.4aladapacaq#S#e#h#hbz.2.X.9.Y.7.W#..Z.3.n.e.u.i.q.l.f.t.d.v.j.p.m.g.s.c.w.h.r.b.x.o.k",
"agawawbO.4#Oaladapacaq#S#e#h#hbz.2.X.9.Y.7.W#..Z.3.n.e.u.i.q.l.f.t.d.v.j.p.m.g.s.c.w.h.r.b.x.o.k"
};
