/* XPM */
static char * kbeng8_xpm[] = {
"48 48 17 1",
" 	c None",
".	c #0A0E81",
"+	c #1EA922",
"@	c #A90406",
"#	c #146E44",
"$	c #A99292",
"%	c #690E0C",
"&	c #D04E4E",
"*	c #232D83",
"=	c #DEDCDC",
"-	c #08F20A",
";	c #DC0204",
">	c #C17071",
",	c #595675",
"'	c #B9B1B0",
")	c #A43736",
"!	c #DD2A2A",
"........................@@@@@@;@;@;;;;;;;;;;;;;;",
".........+-.............@@@;@@@@;@;@;;;;;;;;;;;;",
".*++++*..---+++..,*.*,*.@@@@@;@;@;;;;;;;;;;;;;;;",
".+----#..------.***.**..)))!)))&!))&!&&!&&!&&&&&",
".*----***---+--#*..,....$'''''''='==============",
".#--#..*,--#,+--,.*,*...''''''''=''='===========",
".--+.....--#.#--........$'''''=''=='============",
".--#.*,..--#.#--*,*.*,*.))&)&)&&&&&&&&&>&>>>>>>&",
".--#..*..--*.#--.,*.*,..@@@@@@@@@@;@;;;;;;;;;;;;",
".--#....*...*#--*..*....@@@@@@@;;@;;;;;;;;;;;;;;",
".+--,..*,..*,--+,.*,*...@@@@;@;@@;;@;;;;;;;;;;;;",
".*--+.......#--*.*.*....$$$'$''''''''='=========",
"..+---+####----..,*.*,*.''''''''='==============",
"..*#----------*..,*.*,..$'''''=''='='===========",
"....*+-----+#..*...*....$$$$$$$$'$'$'''''='=====",
"....,..*,..*,..,,.*,*...@@@@;@;;;;;;;;;;;;;;;;;;",
".#-#*...*..**..*...**...@@@@@@@@;@;;;;;;;;;;;;;;",
".+-+###########*.,*.*,..@@@@;@;@;;@;;;;;;;;;;;;;",
".+-------------+.,*.*,*.&&>&>&>>>>>>>>>>>>>>>>$>",
".+-------------+........$''''''''='=============",
".+-+,*.*,.+---#,,.*,*...'''''''=''=='===========",
".+-+*..**----*.**.**....$''''''='='=============",
".*+#..*#---+.**..**.*,..@)@))@)@!@!!;!!!!!!!!!!!",
"..*..*+---#..*,.*,*.*,*.@@@@@@;@;@;@;;;;;;;;;;;;",
"....*----*...#-#........@@@@;@@;@;@;;;;;;;;;;;;;",
"...+---+....*+-+**.*.*.*@@!@!@!@!!@!;!!!!!!!!!!!",
",,----+++++++---$$$$$$'$'''''''''===============",
",+-------------+$$$$$$'$'''''''=''''='==========",
",---------------$$$$'$'$''''''='================",
"*+-+,),),),,,--+),,,,,&,&,>>>>>&>>>>>>>>>$$$$$$>",
"%#-#%%%%%%%@%%+,@@@@@@@@@@@@@@@@@;@;;;;;;;;;;;;;",
"%%%%%%%%%%%%@%@%@%@@@@@@@@@@@@;@;@;;;;;;;;;;;;;;",
"%%%%%%%%%%@%%@%@%@@%@@@@@@@@@@;@;@;;;;;;;;;;;;;;",
",#####,),,+-----,>,>>$>>$>$>$$$$$'$$'''''''''=''",
",+----+,,>------$$$$$$$'''''''''='==============",
",-----+$,,>++---$$$$'$'$$''''''''='='===========",
",+--,,,,,$,,>+-+$$$$$$$$$$''''''''''='==========",
"%+-+%)-----,%+-+%%%@%@@@@@@@@;@;;;;;;;;;;;;;;;;;",
"%+-+%#-----)%+-+@@@@@@@@@@@@@@;@@;;;;;;;;;;;;;;;",
"%+-+%%%---%%@+-+@%@%@@@@@@@@;@@;@@;@;;;;;;;;;;;;",
"%+-+%%)+-+%)%+-+))))))))))&))&&&&&&&&&&&&&&>&>&&",
",----+----+-----$$$$$$$''''''''''='=============",
",+--------------$$$$$'$'$''''''='='='===========",
",---+-+-+--+---+$$$$$$'$'''''''''='=============",
"%+-+)%%)%)%)%+-+)))),))))))))))&)&)&!&&&&&&&&&&&",
"%,+*%%%%%%%%@,+*%%%@@@@@@@@@@;@@;;@;;;;;;;;;;;;;",
"%%%%%%%%%%%%%@%@@@@@%@@@@@@@@@;@;@;;;;;;;;;;;;;;",
"%%%%%%%%%%@%%@%@%@%@@@@@@@@@@;@@;@;@;;;;;;;;;;;;"};
