/* XPM */
static char *kbrus[] = {
/* width height num_colors chars_per_pixel */
"    48    48      252            2",
/* colors */
".. c #00ff00",
".# c #000053",
".a c #f7f7f7",
".b c #f70000",
".c c #0000f7",
".d c #b0b0b0",
".e c #b40000",
".f c #0000b0",
".g c #0000d7",
".h c #d70000",
".i c #dbdbdb",
".j c #e9e9e9",
".k c #909090",
".l c #cdcdcd",
".m c #c50000",
".n c #0000c5",
".o c #0000a2",
".p c #a20000",
".q c #a2a2a2",
".r c #0000e9",
".s c #e90000",
".t c #e2e2e2",
".u c #d4d4d4",
".v c #d00000",
".w c #0000d0",
".x c #0000a9",
".y c #a90000",
".z c #a9a9a9",
".A c #0000f0",
".B c #f00000",
".C c #f0f0f0",
".D c #c2c2c2",
".E c #bb0000",
".F c #0000bb",
".G c #000094",
".H c #940000",
".I c #979797",
".J c #0000de",
".K c #de0000",
".L c #00009b",
".M c #b00000",
".N c #0000cd",
".O c #bebebe",
".P c #c9c9c9",
".Q c #c20000",
".R c #0000c2",
".S c #00009e",
".T c #9e0000",
".U c #9e9e9e",
".V c #0000e6",
".W c #e60000",
".X c #970000",
".Y c #0000b4",
".Z c #bbbbbb",
".0 c #c90000",
".1 c #530000",
".2 c #e20000",
".3 c #0000e2",
".4 c #9b9b9b",
".5 c #9b0000",
".6 c #000097",
".7 c #0000be",
".8 c #be0000",
".9 c #c5c5c5",
"#. c #f4f4f4",
"## c #f40000",
"#a c #0000f4",
"#b c #adadad",
"#c c #ad0000",
"#d c #0000ad",
"#e c #0000d4",
"#f c #d40000",
"#g c #d7d7d7",
"#h c #e6e6e6",
"#i c #535353",
"#j c #ed0000",
"#k c #0000ed",
"#l c #a5a5a5",
"#m c #a50000",
"#n c #0000a5",
"#o c #0000c9",
"#p c #cd0000",
"#q c #d0d0d0",
"#r c #949494",
"#s c #ededed",
"#t c #dedede",
"#u c #db0000",
"#v c #0000db",
"#w c #0000b7",
"#x c #b70000",
"#y c #b4b4b4",
"#z c #0000fb",
"#A c #fb0000",
"#B c #fbfbfb",
"#C c #900000",
"#D c #000090",
"#E c #b7b7b7",
"#F c #820000",
"#G c #747474",
"#H c #707070",
"#I c #777777",
"#J c #6c6c6c",
"#K c #7e0000",
"#L c #7b7b7b",
"#M c #00008d",
"#N c #000077",
"#O c #00007b",
"#P c #6c0000",
"#Q c #00007e",
"#R c #650000",
"#S c #696969",
"#T c #690000",
"#U c #000089",
"#V c #8d8d8d",
"#W c #7e7e7e",
"#X c #000085",
"#Y c #000062",
"#Z c #000074",
"#0 c #000069",
"#1 c #000082",
"#2 c #656565",
"#3 c #000070",
"#4 c #000065",
"#5 c #620000",
"#6 c #00a91c",
"#7 c #00006c",
"#8 c #626262",
"#9 c #7b0000",
"a. c #700000",
"a# c #1ca900",
"aa c #8d0000",
"ab c #828282",
"ac c #890000",
"ad c #898989",
"ae c #850000",
"af c #770000",
"ag c #5d5400",
"ah c #000057",
"ai c #570000",
"aj c #515400",
"ak c #575757",
"al c #740000",
"am c #00005e",
"an c #858585",
"ao c #1ea900",
"ap c #5b5b5b",
"aq c #5b0000",
"ar c #00005b",
"as c #2ed92e",
"at c #495400",
"au c #00a92a",
"av c #3d933d",
"aw c #2bd62b",
"ax c #00e10a",
"ay c #1cc71c",
"az c #5c795c",
"aA c #0ee100",
"aB c #455400",
"aC c #09ec09",
"aD c #008c25",
"aE c #39c739",
"aF c #00e10b",
"aG c #521b00",
"aH c #00543b",
"aI c #1dc81d",
"aJ c #14c500",
"aK c #25d025",
"aL c #4d694d",
"aM c #00c514",
"aN c #5e0000",
"aO c #46b846",
"aP c #14db14",
"aQ c #6d3700",
"aR c #38aa38",
"aS c #5e5e5e",
"aT c #26d126",
"aU c #718d71",
"aV c #001b6c",
"aW c #17c500",
"aX c #00703c",
"aY c #5a5400",
"aZ c #1ec91e",
"a0 c #00704d",
"a1 c #5db35d",
"a2 c #4c2900",
"a3 c #00e10d",
"a4 c #3dcb3d",
"a5 c #2fa12f",
"a6 c #663700",
"a7 c #00a91e",
"a8 c #20cb20",
"a9 c #0be100",
"b. c #24cf24",
"b# c #00a92b",
"ba c #4e5400",
"bb c #23ce23",
"bc c #00a92e",
"bd c #0ef10e",
"be c #00c51b",
"bf c #005453",
"bg c #008c3b",
"bh c #526f52",
"bi c #3c6200",
"bj c #00543d",
"bk c #328c00",
"bl c #008c29",
"bm c #258c00",
"bn c #395400",
"bo c #00374d",
"bp c #409640",
"bq c #001b5f",
"br c #007035",
"bs c #535400",
"bt c #001b52",
"bu c #53a953",
"bv c #405400",
"bw c #506d50",
"bx c #008c32",
"by c #005451",
"bz c #00c518",
"bA c #0df00d",
"bB c #00a91f",
"bC c #22cd22",
"bD c #00c515",
"bE c #4c5400",
"bF c #00a923",
"bG c #37c537",
"bH c #09e100",
"bI c #1fca1f",
"bJ c #00a91d",
"bK c #6c1b00",
"bL c #1fa900",
"bM c #18c500",
"bN c #00e109",
"bO c #29d429",
"bP c #567356",
"bQ c #008c34",
"bR c #0aed0a",
"bS c #475400",
"bT c #1ce31c",
"bU c #4d864d",
"bV c #5ab05a",
"bW c #555400",
"bX c #007037",
"bY c #001b62",
"bZ c #649d64",
"b0 c #003750",
"b1 c #3b5400",
"b2 c #298c00",
"b3 c #008c31",
"b4 c #398f39",
"b5 c #005447",
/* pixels */
"#iakapaS#8#2#S#J#H#G#I#L#Wabanad#V.k#r.I.4.U.q#l.z#b.d#y#E.Z.O.D.9.P.l#q.u#g.i#t.t#h.j#s.C#..a#B",
"#iakapaS#8#2#S#J#H#G#I#L#Wabanad#V.k#r.I.4.U.q#l.z#b.d#y#E.Z.O.D.9.P.l#q.u#g.i#t.t#h.j#s.C#..a#B",
"#iaLaIaZbIa8az#J#H#G#I#LbO..aOad#V.k#r.I.4.U.q#l.z#b.d#y#E.Z.O.D.9.P.l#q.u#g.i#t.t#h.j#s.C#..a#B",
"#iay........bC#J#H#G#I#L......bV#V.k#r.I.4.U.q#l.z#b.d#y#E.Z.O.D.9.P.l#q.u#g.i#t.t#h.j#s.C#..a#B",
"#ib4....bRa8az#J#H#G#I#LbubA..bd#V.k#r.I.4.U.q#l.z#b.d#y#E.Z.O.D.9.P.l#q.u#g.i#t.t#h.j#s.C#..a#B",
"#ia5....bP#2#S#J#H#G#I#L#WbZ....a1.k#r.I.4.U.q#l.z#b.d#y#E.Z.O.D.9.P.l#q.u#g.i#t.t#h.j#s.C#..a#B",
"#iay..aZ#8#2#S#J#H#G#I#L#Wabbd..a4.k#r.I.4.U.q#l.z#b.d#y#E.Z.O.D.9.P.l#q.u#g.i#t.t#h.j#s.C#..a#B",
"#i....av#8#2#S#J#H#G#I#L#Wabaw..as.k#r.I.4.U.q#l.z#b.d#y#E.Z.O.D.9.P.l#q.u#g.i#t.t#h.j#s.C#..a#B",
"#i....av#8#2#S#J#H#G#I#L#Wabaw..as.k#r.I.4.U.q#l.z#b.d#y#E.Z.O.D.9.P.l#q.u#g.i#t.t#h.j#s.C#..a#B",
"#i....av#8#2#S#J#H#G#I#L#WabbT..as.k#r.I.4.U.q#l.z#b.d#y#E.Z.O.D.9.P.l#q.u#g.i#t.t#h.j#s.C#..a#B",
"#iay..aP#8#2#S#J#H#G#I#L#WaU....a1.k#r.I.4.U.q#l.z#b.d#y#E.Z.O.D.9.P.l#q.u#g.i#t.t#h.j#s.C#..a#B",
"#ia5....bp#2#S#J#H#G#I#L#WaE....#V.k#r.I.4.U.q#l.z#b.d#y#E.Z.O.D.9.P.l#q.u#g.i#t.t#h.j#s.C#..a#B",
"#iakaC....aR#S#J#H#G#I#LbG....a4#V.k#r.I.4.U.q#l.z#b.d#y#E.Z.O.D.9.P.l#q.u#g.i#t.t#h.j#s.C#..a#B",
"#iakbwaC......bbb.aKaT......awad#V.k#r.I.4.U.q#l.z#b.d#y#E.Z.O.D.9.P.l#q.u#g.i#t.t#h.j#s.C#..a#B",
"#iakapbhaP................aEanad#V.k#r.I.4.U.q#l.z#b.d#y#E.Z.O.D.9.P.l#q.u#g.i#t.t#h.j#s.C#..a#B",
"#iaLaIbh#8bUaRbbb.aKaTaOaUabanad#V.k#r.I.4.U.q#l.z#b.d#y#E.Z.O.D.9.P.l#q.u#g.i#t.t#h.j#s.C#..a#B",
".##6..a7#Y#4#0#7#3#Z#N#O#Q#1#X#U#M#D.G.6.L.S.o#n.x#d.f.Y#w.F.7.R.n#o.N.w#e.g#v.J.3.V.r#k.A#a.c#z",
".##6..bNbr#4#0#7#3#Z#N#O#Q#1#X#U#M#D.G.6.L.S.o#n.x#d.f.Y#w.F.7.R.n#o.N.w#e.g#v.J.3.V.r#k.A#a.c#z",
".##6......bDb0#7#3#Z#N#O#Q#1#X#U#M#D.G.6.L.S.o#n.x#d.f.Y#w.F.7.R.n#o.N.w#e.g#v.J.3.V.r#k.A#a.c#z",
".##6..........bFbY#Z#N#O#Q#1#X#U#M#D.G.6.L.S.o#n.x#d.f.Y#w.F.7.R.n#o.N.w#e.g#v.J.3.V.r#k.A#a.c#z",
".#aD..a7boax......aX#N#O#Q#1#X#U#M#D.G.6.L.S.o#n.x#d.f.Y#w.F.7.R.n#o.N.w#e.g#v.J.3.V.r#k.A#a.c#z",
".#ahaHbt#Y#4bXaF....aFby#Q#1#X#U#M#D.G.6.L.S.o#n.x#d.f.Y#w.F.7.R.n#o.N.w#e.g#v.J.3.V.r#k.A#a.c#z",
".#aharam#Y#4#0bqb3......beaV#X#U#M#D.G.6.L.S.o#n.x#d.f.Y#w.F.7.R.n#o.N.w#e.g#v.J.3.V.r#k.A#a.c#z",
".#aharam#Y#4#0#7#3bx........bg#U#M#D.G.6.L.S.o#n.x#d.f.Y#w.F.7.R.n#o.N.w#e.g#v.J.3.V.r#k.A#a.c#z",
".#aharam#Y#4#0b5aF......a3....b##M#D.G.6.L.S.o#n.x#d.f.Y#w.F.7.R.n#o.N.w#e.g#v.J.3.V.r#k.A#a.c#z",
".#btbJbj#YbobD......bQaV#Qau....a0#D.G.6.L.S.o#n.x#d.f.Y#w.F.7.R.n#o.N.w#e.g#v.J.3.V.r#k.A#a.c#z",
".##6..aMbB......bzbY#N#O#Q#1be..bc#D.G.6.L.S.o#n.x#d.f.Y#w.F.7.R.n#o.N.w#e.g#v.J.3.V.r#k.A#a.c#z",
".##6........axb0#3#Z#N#Obfaua3..bc#D.G.6.L.S.o#n.x#d.f.Y#w.F.7.R.n#o.N.w#e.g#v.J.3.V.r#k.A#a.c#z",
".##6....axbX#0#7#3#Z#N#O........a0#D.G.6.L.S.o#n.x#d.f.Y#w.F.7.R.n#o.N.w#e.g#v.J.3.V.r#k.A#a.c#z",
".##6..aM#Y#4#0#7#3#Z#N#Obfaub#bg#M#D.G.6.L.S.o#n.x#d.f.Y#w.F.7.R.n#o.N.w#e.g#v.J.3.V.r#k.A#a.c#z",
".#aD..bl#Y#4#0#7#3#Z#N#O#Q#1#X#U#M#D.G.6.L.S.o#n.x#d.f.Y#w.F.7.R.n#o.N.w#e.g#v.J.3.V.r#k.A#a.c#z",
".#ahaHam#Y#4#0#7#3#Z#N#O#Q#1#X#U#M#D.G.6.L.S.o#n.x#d.f.Y#w.F.7.R.n#o.N.w#e.g#v.J.3.V.r#k.A#a.c#z",
".1aiaqaN#5#R#T#Pa.alaf#9#K#Faeacaa#C.H.X.5.T.p#m.y#c.M.e#x.E.8.Q.m.0#p.v#f.h#u.K.2.W.s#j.B##.b#A",
".1aiaqaGbL....aWatalaf#9#K#Faeacaa#C.H.X.5.T.p#m.y#c.M.e#x.E.8.Q.m.0#p.v#f.h#u.K.2.W.s#j.B##.b#A",
".1aia2............bkaf#9#K#Faeacaa#C.H.X.5.T.p#m.y#c.M.e#x.E.8.Q.m.0#p.v#f.h#u.K.2.W.s#j.B##.b#A",
".1aibH..a9biaBaW....ba#9#K#Faeacaa#C.H.X.5.T.p#m.y#c.M.e#x.E.8.Q.m.0#p.v#f.h#u.K.2.W.s#j.B##.b#A",
".1bn....a2#R#T#PbM..a9#9#K#Faeacaa#C.H.X.5.T.p#m.y#c.M.e#x.E.8.Q.m.0#p.v#f.h#u.K.2.W.s#j.B##.b#A",
".1a#..aJ#5#R#T#Pat....bK#K#Fa6aYaa#C.H.X.5.T.p#m.y#c.M.e#x.E.8.Q.m.0#p.v#f.h#u.K.2.W.s#j.B##.b#A",
".1a#..ao#5#R#T#Pa.....aj#K#FaA..aQ#C.H.X.5.T.p#m.y#c.M.e#x.E.8.Q.m.0#p.v#f.h#u.K.2.W.s#j.B##.b#A",
".1a#..ao#5#R#T#Pa.....aj#K#F....ag#C.H.X.5.T.p#m.y#c.M.e#x.E.8.Q.m.0#p.v#f.h#u.K.2.W.s#j.B##.b#A",
".1a#..ao#5#R#T#Pa.....aj#K#F....ag#C.H.X.5.T.p#m.y#c.M.e#x.E.8.Q.m.0#p.v#f.h#u.K.2.W.s#j.B##.b#A",
".1a#..ao#5#R#T#Pa.....aj#K#F....ag#C.H.X.5.T.p#m.y#c.M.e#x.E.8.Q.m.0#p.v#f.h#u.K.2.W.s#j.B##.b#A",
".1a#............................ag#C.H.X.5.T.p#m.y#c.M.e#x.E.8.Q.m.0#p.v#f.h#u.K.2.W.s#j.B##.b#A",
".1a#............................ag#C.H.X.5.T.p#m.y#c.M.e#x.E.8.Q.m.0#p.v#f.h#u.K.2.W.s#j.B##.b#A",
".1a#..aJbvbvaBbSatbEbaajbsbW....ag#C.H.X.5.T.p#m.y#c.M.e#x.E.8.Q.m.0#p.v#f.h#u.K.2.W.s#j.B##.b#A",
".1bm..b2#5#R#T#Pa.alaf#9#K#FaA..aQ#C.H.X.5.T.p#m.y#c.M.e#x.E.8.Q.m.0#p.v#f.h#u.K.2.W.s#j.B##.b#A",
".1aGb1aG#5#R#T#Pa.alaf#9#K#Fa6aYaa#C.H.X.5.T.p#m.y#c.M.e#x.E.8.Q.m.0#p.v#f.h#u.K.2.W.s#j.B##.b#A",
".1aiaqaN#5#R#T#Pa.alaf#9#K#Faeacaa#C.H.X.5.T.p#m.y#c.M.e#x.E.8.Q.m.0#p.v#f.h#u.K.2.W.s#j.B##.b#A"
};
