/* XPM */
static char * kbrus8_xpm[] = {
"48 48 17 1",
" 	c None",
".	c #0202B1",
"+	c #11A31D",
"@	c #A40204",
"#	c #0D6137",
"$	c #949494",
"%	c #19D21B",
"&	c #690504",
"*	c #66685A",
"=	c #DF0204",
"-	c #D1D1D0",
";	c #539252",
">	c #B1B1B0",
",	c #02FE04",
"'	c #EFEFEF",
")	c #023650",
"!	c #53B353",
"**********$*$*$$$$$$$$>$>>>>>>->-------'-'''''''",
"*)*********$*$*$$$$$$$>$>>>>>>>->-----'-'-''''''",
"**+%%%**$*$*%,!$$$$$>$>$>>>>->->-------'-'''''''",
"*%,,,,%****$,,,;$$$$$$>$>>>>>>>->------'-'''''''",
"*#,,,%***$**!,,,$$$$$>$>$>>>>->->----'-'-'''''''",
"*+,,******$*$;,,!$$$$$$>>>>>>>>->-------'-''''''",
"*%,%*******$*$%,%$$$>$>$>>>>->->------'-''''''''",
"*,,;****$**$*$%,%$$$$$>$>>>>>>->->-------'''''''",
"*,,;******$*$*%,%$$$>$>$>>>>>->>-----'-''-''''''",
"*,,;********$$%,%$$$$>$>$>>>>->->-------''''''''",
"*+,%****$*$*$;,,!$$$$$>>>>>>>>->-----'-'-'''''''",
"*+,,;*******$!,,$$$$$$$>$>>>>>>->--------'''''''",
"**%,,!***$*$!,,!$$$$>$>$>>>>->->->----''-'''''''",
")**,,,,%%%%,,,%$$$$$$$>$>>>>>>->--------'-''''''",
"****%,,,,,,,,%$$$$$$$>$>$>>>>>->->----'-''''''''",
"*#%**;!%%%%!$*$*$$$$$$$>>>>>>>->-------'-'''''''",
".+,+............................................",
".+,%#...........................................",
".+,,,%).........................................",
".+,,,,,+).......................................",
".+,+)%,,,#......................................",
"..))..#%,,%#....................................",
".......)+,,,%...................................",
".........+,,,,+.................................",
".......#%,,,%,,+................................",
".)+#.)%,,,#).+,,#...............................",
".+,%+,,,%)....%,+...............................",
".+,,,,%)....#+%,+...............................",
".+,,%#......,,,,#...............................",
".+,%........#+++................................",
".+,+............................................",
"..).............................................",
"&&&&&&&&&&&&&@&@&@@@@@@@@@@@@=@=@===============",
"&&&&+,,+*&&@&&@&@&@&@@@@@@@=@@=@=@=@============",
"&&),,,,,,;&&@&@&@@@@@@@@@@@@=@@=@===============",
"&&%,%*#%,,*&&&@&@&@&@@@@@@@@=@=@=@=@============",
"&#,,)&&&+,%&@&@&@&@@@@@@@=@@@=@=@===============",
"&+,%&&&&*,,&@&&*@@@&@@@@@@@=@@=@=@=@============",
"&+,+&&&&&,,*&&,,&&@@@@@@@@@@=@@=@===============",
"&+,+&&&&&,,*&@,,*@@&@@@@@@@@=@=@=@=@============",
"&+,+&&&&&,,*&&,,*&@@@@@@@@=@@=@=@===============",
"&+,+&&&&&,,*@&,,*@@&@@@@@@@@@@=@=@=@============",
"&+,,,,,,,,,,,,,,*&@@@@@@@@=@=@=@=@==============",
"&+,,,,,,,,,,,,,,*@@&@@@@@@@@@@=@=@=@============",
"&+,%#*)*#*)**),,*&@@@@@@@@=@=@=@================",
"&;,;&&&&&@&&@@%,&@@&@@@@@@@@@@@=@@=@============",
"&&#&&&&&&&&@&&&*&@@@@@@@@@=@==@=================",
"&&&&&&&&&&&&@&@&@&@&@@@@@@@@@=@@@@=@============"};
