/* XPM */
static char * rus_xpm[] = {
/* width height ncolors cpp [x_hot y_hot] */
"27 17 3 1 0 0",
/* colors */
" 	s iconColor2	m white	c white",
".	s iconColor5	m black	c blue",
"X	s iconColor3	m black	c red",
/* pixels */
"                           ",
"                           ",
"                           ",
"                           ",
"                           ",
"...........................",
"...........................",
"...........................",
"...........................",
"...........................",
"...........................",
"XXXXXXXXXXXXXXXXXXXXXXXXXXX",
"XXXXXXXXXXXXXXXXXXXXXXXXXXX",
"XXXXXXXXXXXXXXXXXXXXXXXXXXX",
"XXXXXXXXXXXXXXXXXXXXXXXXXXX",
"XXXXXXXXXXXXXXXXXXXXXXXXXXX",
"XXXXXXXXXXXXXXXXXXXXXXXXXXX"};
